<?xml version="1.0" encoding="UTF-8"?>
<svg id="Capa_1" data-name="Capa 1" xmlns="http://www.w3.org/2000/svg" viewBox="0 0 48 48">
  <defs>
    <style>
      .cls-1 {
        fill: #1d1d1b;
      }

      .cls-2 {
        fill: #fff;
      }

      .cls-3 {
        fill: #38d430;
      }
    </style>
  </defs>
  <g id="LOGO">
    <g>
      <path class="cls-3" d="M31.19,3.95l-.18-.05-2.16,3.31-2.28,6.72-5.07,19.79-3.84,6.98-4.2,3.63.29.18c3.56,2.24,7.67,3.43,11.9,3.43,12.32,0,22.35-10.02,22.35-22.35,0-10.23-6.91-19.13-16.81-21.66Z"/>
      <path class="cls-1" d="M31.7,45.36c.07-.02.14-.04.21-.06.06-.02.12-.04.17-.06.12-.04.24-.08.36-.12,0,0,0,0,0,0,2.71-.94,5.14-2.42,7.18-4.29,2.05-1.88,3.73-4.17,4.89-6.79,0,0,0,0,0,0,.05-.12.1-.23.15-.35.02-.06.05-.11.07-.17.03-.07.05-.13.08-.2.04-.11.09-.22.13-.33,0-.02.01-.04.02-.05.72-1.88,1.16-3.89,1.3-5.97,0-.04,0-.07,0-.11,0-.09.01-.18.01-.27.11-2.32-.17-4.58-.79-6.73,0-.03-.02-.06-.03-.09-.02-.08-.05-.15-.07-.23-.02-.08-.05-.16-.07-.24,0-.02-.01-.04-.02-.07-.95-2.95-2.54-5.59-4.6-7.77-1.46-1.55-3.16-2.89-5.06-3.94h0c-1.71-.95-3.57-1.66-5.52-2.09l-4.6,20.13-10.1,18c1.68.96,3.53,1.69,5.5,2.15h0c1.13.27,2.29.44,3.47.51.04,0,.08,0,.12,0,.1,0,.19,0,.29.01.1,0,.2,0,.29.01.01,0,.03,0,.04,0,2.12.05,4.19-.22,6.15-.78.02,0,.04-.01.06-.02.11-.03.23-.07.34-.1Z"/>
      <g>
        <path class="cls-3" d="M30.32,8.87c.17-.45.38-.9.59-1.33.57-1.22,1.16-2.48,1.02-3.95-.08-1.04-.19-1.98-.71-2.91-.06-.1-.17-.17-.28-.17-.03,0-.06,0-.09.01-.15.04-.24.19-.23.34.15,1.58-.45,3.1-1.59,4.05-.16.12-.32.24-.48.36-1.25.94-2.43,1.82-3.11,3.31-.16.35-.28.67-.39.97-.11-.43-.15-.88-.13-1.33.03-.48.09-.97.15-1.45.17-1.33.34-2.71-.25-4.07-.4-.96-.8-1.82-1.58-2.55-.06-.06-.14-.09-.22-.09-.06,0-.13.02-.18.06-.12.09-.17.25-.11.39.63,1.46.53,3.08-.26,4.34-.12.17-.23.33-.34.49-.9,1.28-1.75,2.48-1.94,4.11-.04.38-.06.72-.07,1.04-.23-.38-.42-.79-.53-1.23-.12-.47-.22-.95-.31-1.42-.25-1.32-.51-2.69-1.49-3.8-.68-.79-1.32-1.49-2.29-1.94-.04-.02-.09-.03-.14-.03-.1,0-.19.05-.26.13-.09.12-.08.29.02.4,1.05,1.2,1.46,2.77,1.09,4.21-.06.19-.12.38-.18.57-.46,1.49-.9,2.9-.57,4.51.08.37.16.71.26,1.01-.34-.29-.64-.63-.89-1.01-.26-.41-.5-.84-.73-1.26-.65-1.18-1.32-2.4-2.59-3.15-.89-.54-1.72-1.01-2.78-1.14-.01,0-.03,0-.04,0-.14,0-.26.09-.3.22-.05.14,0,.3.14.38,1.37.81,2.24,2.18,2.34,3.67,0,.2,0,.4.01.6.02,1.56.04,3.04.85,4.47.19.33.37.62.55.88-.42-.17-.81-.4-1.15-.68-.38-.3-.74-.64-1.09-.97-.98-.92-2-1.87-3.44-2.2-.68-.16-1.36-.31-2.07-.31-.32,0-.62.03-.92.09-.15.03-.26.16-.26.31s.1.28.25.32c1.55.35,2.81,1.39,3.36,2.77.07.19.13.38.2.57.5,1.48.98,2.87,2.19,3.99.28.26.55.47.8.67-.45-.03-.89-.13-1.31-.29-.45-.17-.9-.38-1.33-.59-1.09-.51-2.22-1.05-3.51-1.05-.15,0-.3,0-.44.02-1.04.08-1.98.19-2.91.71-.13.07-.2.23-.15.38.04.14.17.23.31.23,0,0,.02,0,.03,0,.16-.01.32-.02.47-.02,1.42,0,2.72.59,3.58,1.61.12.16.24.32.36.48.94,1.25,1.82,2.43,3.31,3.11.34.15.66.28.97.39-.35.09-.72.13-1.09.13-.08,0-.16,0-.25,0-.48-.03-.97-.09-1.45-.15-.63-.08-1.28-.16-1.93-.16-.82,0-1.5.13-2.15.41-.96.4-1.82.8-2.55,1.58-.1.11-.11.28-.03.4.06.09.16.14.26.14.04,0,.09,0,.13-.03.63-.27,1.31-.41,1.97-.41.85,0,1.67.23,2.37.68.17.12.33.23.49.34,1.28.9,2.48,1.75,4.11,1.94.37.04.71.06,1.03.07-.38.23-.79.41-1.22.53-.47.12-.95.22-1.42.31-1.32.25-2.69.51-3.8,1.49-.79.68-1.49,1.32-1.94,2.29-.06.14-.02.3.1.39.06.04.13.06.19.06.08,0,.15-.03.21-.08.9-.79,2.02-1.23,3.14-1.23.36,0,.72.04,1.07.13.19.06.38.12.57.18,1.14.35,2.22.69,3.38.69.39,0,.76-.04,1.13-.11.37-.08.7-.16,1.01-.26-.29.34-.62.64-1,.89-.41.26-.84.5-1.26.73-1.18.65-2.4,1.32-3.15,2.59-.54.89-1.01,1.72-1.14,2.78-.02.15.07.29.22.34.03.01.07.02.1.02.11,0,.22-.06.28-.16.81-1.37,2.18-2.24,3.67-2.34.2,0,.4,0,.6-.01,1.56-.02,3.04-.04,4.47-.85.33-.19.62-.37.88-.55-.17.41-.39.8-.68,1.15-.3.38-.64.74-.97,1.09-.92.98-1.87,2-2.2,3.44-.24,1.01-.43,1.94-.22,2.99.03.15.16.26.31.26,0,0,0,0,0,0,.15,0,.28-.1.31-.25.35-1.55,1.39-2.81,2.77-3.36.19-.07.38-.13.57-.2,1.48-.5,2.87-.98,3.99-2.19,1.51-1.67,1.85-2.86,1.97-3.61.02-.15-.06-.29-.2-.35-1.07-.43-2.06-1.07-3.01-1.7-.58-.37-1.17-.76-1.78-1.1-.41-.45-.79-.93-1.17-1.39-.43-.53-.88-1.08-1.36-1.6-.25-.56-.47-1.12-.68-1.68-.25-.64-.5-1.3-.8-1.94-.06-.61-.1-1.21-.13-1.81-.04-.69-.07-1.4-.16-2.1.13-.59.28-1.18.44-1.76.18-.67.36-1.35.5-2.04.3-.52.63-1.03.96-1.53.37-.58.76-1.17,1.1-1.78.45-.41.93-.79,1.39-1.17.53-.43,1.08-.88,1.6-1.36.56-.25,1.12-.47,1.68-.68.64-.25,1.3-.5,1.94-.8.61-.06,1.21-.1,1.81-.13.69-.04,1.4-.07,2.1-.16.59.13,1.18.28,1.76.44.8.22,1.63.44,2.48.58.02,0,.04,0,.05,0,.11,0,.22-.06.28-.16.07-.12.06-.26-.03-.36-1.11-1.36-1.42-3.18-.82-4.76Z"/>
        <g>
          <path class="cls-1" d="M28.72,12.24c-.88-.24-1.78-.48-2.72-.62.03-.72.26-1.51.69-2.47.53-1.16,1.53-1.91,2.68-2.77.16-.12.33-.25.5-.37h.02s.02-.03.02-.03c.11-.09.22-.19.32-.29-.16.41-.35.82-.56,1.26-.21.46-.44.93-.63,1.42-.49,1.26-.52,2.63-.14,3.91-.06-.02-.12-.03-.18-.05Z"/>
          <path class="cls-1" d="M21.66,12.16c-.19-.69-.22-1.52-.11-2.56.15-1.27.87-2.29,1.7-3.47.12-.17.24-.34.36-.51v-.02s.02-.02.02-.02c.08-.12.15-.24.21-.37-.02.44-.08.89-.14,1.38-.06.5-.13,1.02-.16,1.55-.07,1.35.32,2.67,1.08,3.77-.06,0-.12,0-.18,0-.91.05-1.84.09-2.78.25Z"/>
          <path class="cls-1" d="M17.7,14.02c-.39-.6-.68-1.37-.89-2.41-.25-1.26.12-2.45.54-3.82.06-.2.12-.39.18-.59v-.02s.01-.02.01-.02c.04-.14.07-.28.09-.42.11.42.2.87.29,1.35.09.49.19,1.01.33,1.52.35,1.3,1.13,2.44,2.19,3.25-.06.02-.11.04-.17.07-.85.32-1.72.66-2.57,1.09Z"/>
          <path class="cls-1" d="M14.5,17.01c-.56-.45-1.07-1.1-1.59-2.01-.63-1.12-.65-2.36-.67-3.8,0-.2,0-.41-.01-.62v-.02s0-.02,0-.02c0-.14-.02-.28-.04-.42.24.37.46.77.69,1.2.24.44.49.9.78,1.34.74,1.14,1.82,1.97,3.08,2.42-.05.04-.09.08-.14.11-.71.57-1.43,1.16-2.1,1.83Z"/>
          <path class="cls-1" d="M12.39,20.84c-.67-.25-1.36-.71-2.14-1.42-.94-.87-1.34-2.05-1.81-3.41-.07-.19-.13-.39-.2-.59v-.02s-.02-.02-.02-.02c-.05-.13-.11-.26-.17-.39.34.28.68.59,1.03.92.37.34.75.7,1.16,1.04,1.03.83,2.33,1.31,3.68,1.34-.03.05-.07.1-.1.15-.5.76-1.01,1.54-1.43,2.39Z"/>
          <path class="cls-1" d="M11.57,25.13c-.72-.04-1.51-.26-2.47-.69-1.16-.53-1.91-1.53-2.77-2.68-.12-.16-.25-.33-.37-.49v-.02s-.03-.02-.03-.02c-.09-.11-.18-.21-.28-.32.42.16.83.36,1.26.56.46.21.93.44,1.42.63.69.26,1.41.4,2.15.4.6,0,1.19-.09,1.76-.26-.02.06-.03.12-.05.18-.24.88-.48,1.78-.62,2.72Z"/>
          <path class="cls-1" d="M10.65,29.65c-.34,0-.7-.02-1.11-.07-1.27-.15-2.29-.87-3.47-1.7-.17-.12-.34-.24-.51-.36h-.02s-.02-.02-.02-.02c-.12-.08-.24-.15-.37-.21.44.02.9.08,1.37.14.5.06,1.02.13,1.55.16.11,0,.21,0,.32,0,1.25,0,2.44-.38,3.45-1.08,0,.06,0,.12,0,.18.05.91.09,1.84.25,2.78-.43.12-.91.17-1.46.17Z"/>
          <path class="cls-1" d="M10.71,34.41c-.96,0-1.89-.29-2.97-.62-.2-.06-.39-.12-.59-.18h-.02s-.02-.01-.02-.01c-.14-.04-.28-.07-.42-.09.42-.11.87-.2,1.35-.29.49-.09,1.01-.19,1.52-.33,1.3-.35,2.44-1.13,3.25-2.19.02.06.04.11.07.17.32.85.66,1.72,1.09,2.57-.6.39-1.37.68-2.41.89-.27.05-.55.08-.85.08Z"/>
          <path class="cls-1" d="M10.05,38.94c.37-.24.77-.46,1.2-.69.44-.24.9-.49,1.34-.78,1.13-.73,1.97-1.83,2.41-3.08.04.05.08.1.12.14.57.71,1.16,1.43,1.83,2.1-.45.56-1.1,1.07-2.01,1.59-1.12.63-2.36.65-3.8.67-.2,0-.41,0-.62.01h-.02s-.02,0-.02,0c-.14,0-.28.02-.42.04Z"/>
          <path class="cls-1" d="M14.94,43.08c.28-.34.59-.68.92-1.03.34-.37.7-.75,1.04-1.16.85-1.05,1.31-2.34,1.34-3.68.05.03.1.07.15.1.76.5,1.54,1.01,2.39,1.43-.25.67-.71,1.36-1.42,2.14-.87.94-2.05,1.34-3.41,1.81-.19.07-.39.13-.59.2h-.02s-.02.02-.02.02c-.13.05-.26.11-.39.17Z"/>
        </g>
      </g>
      <circle class="cls-3" cx="25.65" cy="25.61" r="14.57" transform="translate(-1.01 50.17) rotate(-87.6)"/>
      <g>
        <path class="cls-1" d="M24.38,24.24c.43,0,.65.21.65.64v2.39c0,.43-.22.64-.65.64h-9.26c-.41,0-.65-.23-.65-.64v-1.83c0-4.9,6.39-6.29,6.74-7.97.13-.64-.22-1.19-1.07-1.19-1.02,0-1.23.44-1.38,1.32-.07.43-.57.73-1.01.65l-2.48-.53c-.39-.09-.59-.32-.57-.7.13-1.54.96-4.39,5.44-4.39,4.87,0,5.05,3.77,5.02,4.41,0,4.18-5.7,4.84-6.46,6.99-.04.15.02.23.2.23h5.48Z"/>
        <path class="cls-1" d="M37.27,22.15c0,.41-.22.64-.65.64h-.26c-.41,0-.65.21-.65.64v3.84c0,.41-.22.64-.65.64h-2.44c-.41,0-.65-.23-.65-.64v-3.84c0-.43-.22-.64-.65-.64h-5.5c-.41,0-.65-.23-.65-.64v-2.98s.07-.19.13-.43l1.87-3.65c.17-.34.35-.51.74-.51h2.39c.48,0,.76.3.54.72l-1.83,3.58c-.04.15,0,.23.17.23h2.13c.43,0,.65-.23.65-.64v-5.29c0-.43.24-.64.65-.64h2.44c.43,0,.65.21.65.64v5.29c0,.41.24.64.65.64h.26c.43,0,.65.21.65.64v2.39Z"/>
      </g>
      <g id="estrellas">
        <path class="cls-3" d="M36.88,10.57l-1.05-.17-.17-1.05c-.01-.07-.07-.12-.14-.12s-.13.05-.14.12l-.17,1.05-1.05.17c-.07.01-.12.07-.12.14s.05.13.12.14l1.05.17.17,1.05c.01.07.07.12.14.12s.13-.05.14-.12l.17-1.05,1.05-.17c.07-.01.12-.07.12-.14s-.05-.13-.12-.14Z"/>
        <path class="cls-3" d="M40.69,37.23l-1.44-.24-.24-1.44c-.02-.09-.1-.16-.19-.16s-.18.07-.19.16l-.24,1.44-1.44.24c-.09.02-.16.1-.16.19s.07.18.16.19l1.44.24.24,1.44c.02.09.1.16.19.16s.18-.07.19-.16l.24-1.44,1.44-.24c.09-.02.16-.1.16-.19s-.07-.18-.16-.19Z"/>
        <path class="cls-2" d="M41.94,14.97l-1.62-.27-.27-1.62c-.02-.11-.11-.18-.22-.18s-.2.08-.22.18l-.27,1.62-1.62.27c-.11.02-.18.11-.18.22s.08.2.18.22l1.62.27.27,1.62c.02.11.11.18.22.18s.2-.08.22-.18l.27-1.62,1.62-.27c.11-.02.18-.11.18-.22s-.08-.2-.18-.22Z"/>
        <path class="cls-2" d="M28.43,42.93l-1.18-.19-.19-1.18c-.01-.08-.08-.13-.16-.13s-.14.06-.16.13l-.19,1.18-1.18.19c-.08.01-.13.08-.13.16s.06.14.13.16l1.18.19.19,1.18c.01.08.08.13.16.13s.14-.06.16-.13l.19-1.18,1.18-.19c.08-.01.13-.08.13-.16s-.06-.14-.13-.16Z"/>
        <path class="cls-2" d="M42.4,33.69l-.94-.16-.16-.94c-.01-.06-.06-.11-.13-.11s-.12.05-.13.11l-.16.94-.94.16c-.06.01-.11.06-.11.13s.05.12.11.13l.94.16.16.94c.01.06.06.11.13.11s.12-.05.13-.11l.16-.94.94-.16c.06-.01.11-.06.11-.13s-.05-.12-.11-.13Z"/>
      </g>
      <path class="cls-1" d="M36.43,27.37c-.14-.15-.34-.23-.57-.23h0s0,0,0,0c-1.22.02-2.44.04-3.61.05-.2,0-.41.08-.56.24-.14-.13-.32-.21-.53-.21h0c-.47,0-.89,0-1.3,0-.39,0-.76,0-1.14,0-.39,0-.79,0-1.21,0h-.38c-.19,0-.4.08-.56.25,0-.01-.02-.02-.03-.03-.14-.14-.33-.21-.53-.21h-.53c-.7,0-1.38,0-2.08,0v-.08h-6.09v.02c-.11-.01-.22-.02-.34-.02h-.07c-.83.03-1.48.28-1.92.74-.52.55-.6,1.25-.57,1.59.06.85.47,1.49.96,2.01-.07-.02-.13-.03-.19-.05-.07-.02-.15-.03-.22-.03-.15,0-.29.05-.4.13-.11.08-.28.28-.24.65h0s0,.02,0,.02c.16.94.55,2.32,2.19,3.5h0s0,.01,0,.01c.5.32.97.49,1.41.49.05,0,.09,0,.14,0,.19-.02.4-.05.61-.15.3-.15.52-.41.68-.69,0,.37,0,.74,0,1.11,0,.47.22.84.57.99.31.14.63.26.95.37.08.03.17.04.25.04.14,0,.27-.04.38-.12.05-.03.09-.07.13-.12.12.3.35.47.56.53,1.13.3,2.28.45,3.43.45.11,0,.22,0,.34,0,.38-.01.78-.27.79-.98l.02-1.65c0-.34-.08-.59-.26-.77-.14-.14-.32-.21-.53-.21-.12,0-.22,0-.33,0-.49,0-.99-.02-1.49-.07v-.27c.36.03.71.04,1.06.05h0c.21,0,.39-.07.53-.2.18-.17.27-.43.28-.76l.02-1.65c0-.72-.42-.98-.78-.99-.35,0-.71-.02-1.07-.03v-.28c.49.02.95.02,1.41.02.11,0,.22,0,.33,0,.2,0,.41-.08.56-.26.01.01.02.03.03.04.14.13.32.21.52.21h.02c.29,0,.51-.02.76-.03-.02,2.2-.04,4.41-.08,6.58,0,.35.1.61.3.77.12.1.27.15.43.15.06,0,.12,0,.17-.02.33-.08.66-.17.99-.27.39-.12.63-.5.64-1,.04-2.12.07-4.27.09-6.4.26-.02.45-.04.77-.08.07,0,.14-.03.21-.06-.03,1.91-.07,3.82-.12,5.7-.01.43.17.64.34.74.1.06.22.09.33.09s.24-.03.35-.09c1.17-.62,2.3-1.39,3.37-2.31.25-.22.4-.5.43-.82l.1-1.03c.04-.41-.17-.6-.3-.68-.09-.06-.2-.09-.31-.09,0,0,0,0-.01,0,.04-.1.06-.2.07-.31.03-.37.05-.73.07-1.1.02-.36-.13-.56-.26-.66-.02-.02-.04-.03-.06-.04.15-.03.29-.06.44-.09.4-.08.66-.39.7-.8l.08-1c.03-.31-.09-.5-.2-.61Z"/>
      <g>
        <path class="cls-2" d="M17.28,29.35c-.4-.3-.66-.55-.76-.78-.07-.17.04-.34.1-.41.08-.07.23-.11.38-.09.37.05.59.46.8.94.1.25.25.39.44.38,0,0,.36-.05.69-.1.13-.02.28-.11.27-.42-.02-.36-.1-1.04-.47-1.61-.4-.63-1.01-.93-1.81-.92-.7.02-1.23.22-1.58.59-.41.43-.47.99-.44,1.23.08,1.18.99,1.9,1.72,2.54.48.42.97,1,1.04,1.37.02.13-.02.23-.1.29-.1.07-.27.08-.43-.03-.3-.2-.55-.53-.71-.96-.11-.28-.23-.5-.45-.55-.29-.06-.62-.13-.9-.2-.08-.02-.15-.02-.2.02-.05.04-.07.11-.06.22.16.95.54,2.14,2,3.19.38.25.82.44,1.25.41.16-.01.3-.03.44-.1.64-.33.8-1.36.78-1.63,0-1.9-1.21-2.79-2.01-3.39Z"/>
        <path class="cls-2" d="M21.17,26.42c-.32,0-.63,0-.95,0-.1,0-.32.04-.32.45-.02,2.79-.03,5.6-.03,8.35,0,.28.11.48.29.56.3.13.61.25.92.36.04.01.07.02.1.02.05,0,.09-.02.11-.03.08-.06.12-.18.12-.37,0-2.91.03-5.89.07-8.85,0-.19-.03-.32-.11-.4-.05-.05-.12-.08-.2-.08Z"/>
        <path class="cls-2" d="M26.02,26.44c-1.19,0-2.32,0-3.53,0-.12,0-.32.06-.32.48-.04,3.02-.06,6.05-.08,9,0,.3.11.5.3.55,1.09.29,2.2.44,3.3.44.11,0,.22,0,.32,0,.14,0,.32-.1.32-.51l.02-1.65c0-.2-.04-.34-.12-.42-.05-.05-.12-.07-.2-.07-.7.01-1.4-.02-2.09-.09-.13-.01-.2-.17-.2-.41v-.47c0-.2.05-.29.09-.32.03-.03.06-.04.11-.03.45.04.9.07,1.35.08.08,0,.14-.02.2-.07.08-.08.13-.22.13-.42l.02-1.65c0-.41-.17-.5-.32-.5-.44,0-.89-.02-1.34-.05-.18-.01-.2-.28-.2-.39v-.47c0-.16.04-.27.1-.33.03-.03.06-.04.11-.04.7.03,1.32.04,2.01.03.12,0,.32-.07.32-.5v-1.65c.01-.21-.02-.34-.11-.43-.05-.05-.12-.08-.2-.08Z"/>
        <path class="cls-2" d="M31.17,26.44c-1.48.01-2.59,0-4.04,0-.12,0-.32.07-.32.5v1.65c-.01.19.03.34.11.42.05.05.12.07.19.07.4-.01.65-.03,1.05-.05.05,0,.08,0,.11.04.05.05.08.16.08.32-.02,2.24-.04,4.5-.08,6.73,0,.19.04.33.12.39.04.03.08.05.14.05.02,0,.04,0,.06,0,.32-.07.64-.16.96-.26.19-.06.3-.26.3-.55.04-2.14.07-4.32.09-6.47,0-.16.04-.36.21-.38.4-.04.58-.05.98-.1.12-.01.31-.09.31-.47,0-.48,0-.96.01-1.44,0-.17-.03-.29-.11-.36-.05-.05-.12-.08-.21-.08Z"/>
        <path class="cls-2" d="M36.1,26.43c-.05-.05-.12-.08-.23-.08h0c-1.22.02-2.44.04-3.61.05-.1,0-.32.05-.32.44-.04,2.69-.09,5.41-.16,8.08,0,.17.03.27.11.32.02.01.05.02.09.02.03,0,.08,0,.13-.04,1.14-.6,2.24-1.36,3.29-2.25.16-.14.25-.31.27-.51.03-.34.07-.68.1-1.03,0-.07,0-.18-.07-.22-.08-.05-.19.02-.23.04-.62.39-1.26.75-1.89,1.06-.03.01-.07.03-.1.01-.01,0-.05-.04-.04-.19v-.37c.02-.14.06-.32.23-.39.42-.17.83-.35,1.25-.55.17-.08.28-.25.29-.46.02-.37.05-.73.07-1.1,0-.13-.02-.21-.08-.26-.05-.04-.13-.05-.22-.02-.42.12-.85.24-1.28.34-.05.01-.08,0-.11-.01-.04-.03-.06-.11-.06-.22v-.36c.02-.2.09-.31.22-.33.66-.11,1.34-.23,2.02-.37.19-.04.3-.17.32-.37l.08-1c0-.11-.01-.19-.07-.25Z"/>
      </g>
    </g>
  </g>
</svg>