<?xml version="1.0" encoding="UTF-8"?>
<svg id="Capa_1" data-name="Capa 1" xmlns="http://www.w3.org/2000/svg" viewBox="0 0 73 73">
  <defs>
    <style>
      .cls-1 {
        fill: #1f140f;
        stroke: #1f140f;
        stroke-miterlimit: 10;
        stroke-width: .19px;
      }

      .cls-2 {
        fill: #42ab0c;
      }

      .cls-3 {
        fill: #fff;
      }
    </style>
  </defs>
  <g id="LOGO">
    <g>
      <path class="cls-2" d="M47.43,6.01l-.27-.07-3.28,5.03-3.47,10.21-7.72,30.1-5.84,10.62-6.38,5.52.45.28c5.41,3.41,11.67,5.21,18.09,5.21,18.74,0,33.99-15.25,33.99-33.99,0-15.56-10.51-29.1-25.57-32.93Z"/>
      <path class="cls-1" d="M48.21,68.99c.1-.03.21-.06.31-.1.09-.03.18-.06.27-.09.18-.06.37-.12.55-.18,0,0,0,0,0,0,4.11-1.43,7.81-3.68,10.92-6.53,3.11-2.85,5.67-6.34,7.44-10.32,0,0,0,0,0,0,.08-.18.15-.35.23-.53.04-.09.07-.17.11-.26.04-.1.08-.2.12-.31.07-.17.13-.34.2-.51.01-.03.02-.06.03-.08,1.09-2.87,1.77-5.92,1.97-9.08,0-.05,0-.11.01-.16,0-.13.02-.27.02-.4.17-3.52-.26-6.97-1.2-10.23-.01-.04-.03-.09-.04-.13-.03-.12-.07-.23-.1-.35-.04-.12-.07-.24-.11-.36-.01-.03-.02-.07-.03-.1-1.45-4.49-3.87-8.5-6.99-11.82-2.21-2.36-4.8-4.39-7.69-5.99h0c-2.61-1.44-5.43-2.52-8.39-3.18l-6.99,30.61-15.36,27.38c2.56,1.46,5.36,2.57,8.36,3.27h0c1.72.41,3.48.67,5.28.78.06,0,.13,0,.19.01.14,0,.29.01.43.02.15,0,.3.01.45.02.02,0,.04,0,.06,0,3.22.08,6.37-.33,9.36-1.19.03,0,.06-.02.09-.02.17-.05.35-.1.52-.16Z"/>
      <g>
        <path class="cls-2" d="M46.12,13.48c.26-.69.58-1.37.89-2.03.87-1.85,1.77-3.77,1.56-6.01-.13-1.58-.3-3.01-1.08-4.43-.09-.16-.25-.25-.43-.25-.05,0-.1,0-.14.02-.22.07-.36.28-.34.51.22,2.41-.68,4.71-2.42,6.16-.24.19-.49.37-.73.55-1.9,1.42-3.7,2.77-4.74,5.03-.24.53-.43,1.01-.59,1.47-.16-.66-.23-1.34-.19-2.03.04-.73.13-1.48.22-2.2.26-2.03.52-4.13-.38-6.2-.61-1.47-1.21-2.77-2.4-3.88-.09-.09-.21-.13-.33-.13-.1,0-.2.03-.28.09-.19.13-.26.38-.17.59.95,2.22.8,4.69-.4,6.6-.18.25-.35.5-.52.75-1.37,1.94-2.66,3.77-2.95,6.25-.06.57-.09,1.09-.1,1.58-.36-.58-.63-1.2-.81-1.87-.19-.71-.33-1.45-.47-2.17-.38-2.01-.78-4.09-2.27-5.78-1.03-1.21-2.01-2.26-3.48-2.95-.07-.03-.14-.05-.21-.05-.15,0-.3.07-.39.2-.14.18-.13.44.02.61,1.59,1.82,2.21,4.21,1.66,6.41-.09.29-.18.59-.27.87-.7,2.27-1.36,4.41-.87,6.86.12.57.25,1.07.39,1.54-.52-.44-.97-.95-1.35-1.53-.4-.62-.76-1.28-1.11-1.92-.99-1.79-2.01-3.65-3.95-4.79-1.35-.83-2.61-1.53-4.22-1.73-.02,0-.04,0-.06,0-.21,0-.39.13-.46.33-.07.22.01.46.21.58,2.08,1.24,3.41,3.32,3.56,5.58,0,.31.01.61.02.91.03,2.37.06,4.62,1.29,6.79.29.5.57.94.84,1.34-.63-.26-1.22-.61-1.75-1.04-.57-.46-1.12-.98-1.65-1.48-1.49-1.4-3.03-2.85-5.23-3.34-1.04-.25-2.07-.47-3.14-.47-.48,0-.94.04-1.4.13-.23.04-.39.24-.39.47s.16.43.38.48c2.36.53,4.27,2.11,5.11,4.21.1.29.2.58.3.86.77,2.25,1.49,4.37,3.32,6.06.43.39.83.72,1.22,1.01-.68-.05-1.35-.2-1.99-.45-.69-.26-1.37-.58-2.03-.89-1.66-.78-3.38-1.59-5.34-1.59-.22,0-.45.01-.67.03-1.58.13-3.01.3-4.43,1.08-.2.11-.3.35-.23.57.06.21.25.34.47.34.01,0,.03,0,.04,0,.24-.02.48-.03.72-.03,2.16,0,4.14.89,5.44,2.46.19.24.37.49.55.73,1.42,1.9,2.77,3.7,5.03,4.74.51.23,1,.42,1.47.59-.54.13-1.09.2-1.66.2-.12,0-.25,0-.37-.01-.73-.04-1.48-.13-2.2-.22-.96-.12-1.95-.25-2.93-.25-1.25,0-2.28.2-3.26.62-1.47.61-2.77,1.21-3.88,2.4-.16.17-.17.43-.04.61.09.13.24.21.4.21.06,0,.13-.01.19-.04.96-.41,1.99-.63,3-.63,1.29,0,2.54.36,3.61,1.03.25.18.5.35.75.52,1.94,1.37,3.77,2.66,6.25,2.95.57.06,1.08.1,1.57.11-.57.36-1.2.63-1.86.81-.71.19-1.45.33-2.17.47-2.01.38-4.09.78-5.78,2.27-1.21,1.03-2.26,2.01-2.95,3.48-.1.21-.03.46.15.6.09.07.19.1.29.1.12,0,.23-.04.32-.12,1.37-1.2,3.07-1.86,4.78-1.86.55,0,1.1.07,1.63.2.29.09.59.18.87.27,1.73.54,3.37,1.04,5.14,1.04.59,0,1.15-.06,1.72-.17.56-.12,1.07-.25,1.53-.39-.44.52-.95.98-1.53,1.35-.62.4-1.28.76-1.92,1.11-1.79.99-3.65,2.01-4.79,3.95-.83,1.35-1.53,2.61-1.73,4.22-.03.23.11.45.33.52.05.02.11.03.16.03.17,0,.33-.09.42-.24,1.24-2.08,3.32-3.41,5.58-3.56.31,0,.61-.01.91-.02,2.37-.03,4.62-.06,6.79-1.29.5-.28.94-.57,1.34-.84-.26.63-.6,1.22-1.03,1.75-.46.57-.98,1.12-1.48,1.65-1.4,1.49-2.85,3.03-3.34,5.23-.37,1.54-.65,2.96-.34,4.55.04.23.24.39.47.39,0,0,0,0,0,0,.23,0,.43-.16.48-.38.53-2.36,2.11-4.27,4.21-5.11.29-.1.58-.2.86-.3,2.25-.77,4.37-1.49,6.06-3.32,2.3-2.54,2.81-4.35,2.99-5.49.04-.22-.09-.44-.3-.53-1.63-.66-3.13-1.63-4.58-2.58-.88-.57-1.78-1.15-2.71-1.68-.62-.69-1.2-1.41-1.77-2.12-.66-.81-1.33-1.65-2.06-2.43-.38-.85-.71-1.71-1.03-2.56-.37-.98-.76-1.98-1.21-2.95-.1-.92-.14-1.85-.19-2.76-.05-1.05-.11-2.12-.24-3.19.19-.9.43-1.79.67-2.67.27-1.01.55-2.05.76-3.11.46-.8.96-1.57,1.46-2.33.57-.88,1.15-1.78,1.68-2.71.69-.62,1.41-1.2,2.12-1.77.81-.66,1.65-1.33,2.43-2.06.85-.38,1.71-.71,2.56-1.03.98-.37,1.98-.76,2.95-1.21.92-.1,1.85-.14,2.76-.19,1.05-.05,2.12-.11,3.19-.24.9.19,1.79.43,2.67.67,1.22.33,2.49.67,3.77.88.03,0,.05,0,.08,0,.17,0,.33-.09.42-.24.1-.18.08-.4-.04-.55-1.69-2.07-2.16-4.84-1.24-7.24Z"/>
        <g>
          <path class="cls-1" d="M43.68,18.61c-1.33-.36-2.7-.73-4.13-.95.05-1.09.39-2.3,1.05-3.76.81-1.77,2.33-2.91,4.08-4.22.25-.19.5-.37.75-.57l.03-.02.03-.02c.17-.14.33-.28.48-.43-.24.62-.54,1.25-.85,1.92-.33.69-.66,1.41-.95,2.16-.74,1.91-.79,4.01-.21,5.95-.09-.02-.18-.05-.27-.07Z"/>
          <path class="cls-1" d="M32.94,18.49c-.29-1.05-.34-2.31-.16-3.9.23-1.94,1.32-3.48,2.58-5.27.18-.25.36-.51.54-.77l.02-.03.02-.03c.12-.18.22-.37.33-.56-.04.66-.12,1.36-.21,2.09-.1.76-.19,1.54-.24,2.35-.11,2.05.49,4.05,1.64,5.73-.09,0-.19,0-.28.01-1.38.07-2.8.14-4.22.38Z"/>
          <path class="cls-1" d="M26.92,21.31c-.6-.91-1.03-2.09-1.36-3.66-.38-1.91.18-3.72.82-5.81.09-.3.18-.6.28-.9v-.03s.02-.03.02-.03c.05-.21.1-.42.14-.64.17.64.3,1.33.44,2.06.14.75.29,1.53.5,2.31.53,1.98,1.72,3.71,3.33,4.94-.09.03-.17.07-.26.1-1.29.49-2.62,1-3.9,1.67Z"/>
          <path class="cls-1" d="M22.06,25.86c-.85-.68-1.63-1.67-2.42-3.06-.96-1.7-.98-3.59-1.01-5.78,0-.31,0-.62-.02-.94v-.03s0-.03,0-.03c-.01-.22-.04-.43-.07-.65.36.56.7,1.17,1.06,1.82.37.67.75,1.36,1.19,2.04,1.12,1.73,2.77,3,4.69,3.67-.07.06-.14.11-.21.17-1.08.87-2.18,1.76-3.2,2.79Z"/>
          <path class="cls-1" d="M18.85,31.69c-1.02-.39-2.06-1.08-3.25-2.16-1.43-1.32-2.04-3.11-2.75-5.19-.1-.29-.2-.59-.31-.89v-.03s-.02-.03-.02-.03c-.08-.2-.17-.4-.26-.59.52.42,1.03.9,1.57,1.4.56.52,1.13,1.07,1.76,1.58,1.56,1.27,3.54,1.99,5.59,2.04-.05.08-.1.16-.15.23-.75,1.16-1.53,2.35-2.18,3.64Z"/>
          <path class="cls-1" d="M17.59,38.22c-1.09-.05-2.3-.39-3.76-1.05-1.77-.81-2.91-2.33-4.22-4.08-.19-.25-.37-.5-.57-.75l-.02-.03-.02-.03c-.14-.17-.28-.33-.43-.48.63.24,1.27.54,1.92.85.69.33,1.41.66,2.16.95,1.04.4,2.14.61,3.27.61.91,0,1.81-.13,2.68-.39-.02.09-.05.18-.07.27-.36,1.33-.73,2.7-.95,4.13Z"/>
          <path class="cls-1" d="M16.2,45.08c-.51,0-1.06-.03-1.68-.1-1.94-.23-3.48-1.32-5.27-2.58-.25-.18-.51-.36-.77-.54l-.03-.02-.03-.02c-.18-.12-.37-.22-.56-.32.67.03,1.36.12,2.09.21.76.1,1.54.19,2.35.24.16,0,.33.01.49.01,1.89,0,3.71-.59,5.24-1.64,0,.09,0,.18.01.27.07,1.38.14,2.8.38,4.22-.66.18-1.39.27-2.22.27Z"/>
          <path class="cls-1" d="M16.29,52.33c-1.45,0-2.88-.44-4.52-.95-.3-.09-.6-.18-.9-.28h-.03s-.03-.02-.03-.02c-.21-.05-.42-.1-.63-.14.64-.17,1.33-.3,2.05-.44.75-.14,1.53-.29,2.31-.5,1.98-.53,3.71-1.72,4.94-3.33.03.09.07.17.1.26.49,1.29,1,2.62,1.67,3.9-.91.6-2.09,1.03-3.66,1.36-.42.08-.84.13-1.29.13Z"/>
          <path class="cls-1" d="M15.29,59.22c.56-.36,1.17-.7,1.82-1.06.67-.37,1.36-.75,2.04-1.19,1.72-1.11,2.99-2.78,3.67-4.69.06.07.12.15.18.22.87,1.08,1.76,2.18,2.79,3.2-.68.85-1.67,1.63-3.06,2.42-1.7.96-3.59.98-5.78,1.01-.31,0-.63,0-.94.02h-.03s-.03,0-.03,0c-.22.01-.43.04-.65.07Z"/>
          <path class="cls-1" d="M22.72,65.51c.42-.52.9-1.03,1.4-1.57.52-.56,1.06-1.14,1.58-1.76,1.29-1.59,1.99-3.57,2.04-5.6.08.05.16.1.24.15,1.16.75,2.35,1.53,3.64,2.18-.39,1.02-1.08,2.06-2.16,3.25-1.32,1.43-3.11,2.04-5.19,2.75-.29.1-.59.2-.89.31h-.03s-.03.02-.03.02c-.2.08-.4.17-.59.26Z"/>
        </g>
      </g>
      <circle class="cls-2" cx="39.01" cy="38.94" r="22.15" transform="translate(-1.53 76.29) rotate(-87.6)"/>
      <g>
        <path class="cls-1" d="M37.08,36.87c.66,0,.99.32.99.97v3.63c0,.65-.33.97-.99.97h-14.09c-.63,0-.99-.36-.99-.97v-2.79c0-7.46,9.72-9.57,10.25-12.13.2-.97-.33-1.82-1.62-1.82-1.55,0-1.87.67-2.1,2-.1.65-.87,1.11-1.53.98l-3.77-.81c-.6-.13-.89-.49-.86-1.07.2-2.33,1.46-6.68,8.27-6.68,7.41,0,7.67,5.74,7.64,6.71,0,6.36-8.66,7.36-9.82,10.64-.07.23.03.36.3.36h8.33Z"/>
        <path class="cls-1" d="M56.68,33.69c0,.62-.33.97-.99.97h-.4c-.63,0-.99.32-.99.97v5.84c0,.62-.33.97-.99.97h-3.7c-.63,0-.99-.36-.99-.97v-5.84c0-.65-.33-.97-.99-.97h-8.37c-.63,0-.99-.36-.99-.97v-4.54s.1-.29.2-.65l2.84-5.54c.26-.52.53-.78,1.12-.78h3.64c.73,0,1.16.45.83,1.1l-2.78,5.45c-.07.23,0,.36.26.36h3.24c.66,0,.99-.36.99-.97v-8.04c0-.65.36-.97.99-.97h3.7c.66,0,.99.32.99.97v8.04c0,.62.36.97.99.97h.4c.66,0,.99.32.99.97v3.63Z"/>
      </g>
      <g id="estrellas">
        <path class="cls-2" d="M56.09,16.08l-1.6-.26-.26-1.6c-.02-.1-.11-.18-.21-.18s-.2.08-.21.18l-.26,1.6-1.6.26c-.1.02-.18.11-.18.21s.08.2.18.21l1.6.26.26,1.6c.02.1.11.18.21.18s.2-.08.21-.18l.26-1.6,1.6-.26c.1-.02.18-.11.18-.21s-.08-.2-.18-.21Z"/>
        <path class="cls-2" d="M61.89,56.62l-2.19-.36-.36-2.19c-.02-.14-.15-.25-.29-.25s-.27.11-.29.25l-.36,2.19-2.19.36c-.14.02-.25.15-.25.29s.11.27.25.29l2.19.36.36,2.19c.02.14.15.25.29.25s.27-.11.29-.25l.36-2.19,2.19-.36c.14-.02.25-.15.25-.29s-.11-.27-.25-.29Z"/>
        <path class="cls-3" d="M63.79,22.77l-2.46-.41-.41-2.46c-.03-.16-.17-.28-.33-.28s-.3.12-.33.28l-.41,2.46-2.46.41c-.16.03-.28.17-.28.33s.12.3.28.33l2.46.41.41,2.46c.03.16.17.28.33.28s.3-.12.33-.28l.41-2.46,2.46-.41c.16-.03.28-.17.28-.33s-.12-.3-.28-.33Z"/>
        <path class="cls-3" d="M43.24,65.29l-1.8-.3-.3-1.8c-.02-.12-.12-.2-.24-.2s-.22.09-.24.2l-.3,1.8-1.8.3c-.12.02-.2.12-.2.24s.09.22.2.24l1.8.3.3,1.8c.02.12.12.2.24.2s.22-.09.24-.2l.3-1.8,1.8-.3c.12-.02.2-.12.2-.24s-.09-.22-.2-.24Z"/>
        <path class="cls-3" d="M64.48,51.24l-1.44-.24-.24-1.44c-.02-.09-.1-.16-.19-.16s-.18.07-.19.16l-.24,1.44-1.44.24c-.09.02-.16.1-.16.19s.07.18.16.19l1.44.24.24,1.44c.02.09.1.16.19.16s.18-.07.19-.16l.24-1.44,1.44-.24c.09-.02.16-.1.16-.19s-.07-.18-.16-.19Z"/>
      </g>
      <path class="cls-1" d="M55.4,41.62c-.22-.23-.51-.34-.87-.35h0s0,0,0,0c-1.86.03-3.71.06-5.49.08-.31,0-.62.12-.85.37-.21-.21-.49-.31-.81-.31h0c-.71,0-1.36,0-1.98,0-.59,0-1.16,0-1.74,0-.6,0-1.2,0-1.84,0h-.58c-.29,0-.61.11-.85.38-.01-.02-.02-.04-.04-.05-.21-.21-.5-.33-.81-.33h-.81c-1.06,0-2.1,0-3.16,0v-.13h-9.26v.03c-.17-.02-.34-.03-.52-.03h-.11c-1.27.04-2.24.42-2.92,1.13-.79.83-.92,1.91-.87,2.43.09,1.3.72,2.26,1.46,3.05-.1-.02-.19-.05-.28-.07-.11-.03-.22-.05-.33-.05-.23,0-.44.07-.61.2-.16.13-.43.43-.36.99h0s0,.03,0,.03c.24,1.43.84,3.53,3.34,5.32h.01s.01.02.01.02c.75.49,1.47.74,2.14.74.07,0,.14,0,.21,0,.3-.02.61-.07.93-.23.46-.23.79-.62,1.04-1.05,0,.57,0,1.13,0,1.69,0,.71.33,1.27.87,1.51.48.21.96.4,1.45.57.13.05.26.07.39.07.21,0,.41-.06.58-.18.07-.05.14-.11.2-.18.18.46.52.72.86.8,1.72.46,3.47.69,5.21.69.17,0,.34,0,.51,0,.57-.02,1.18-.42,1.2-1.49l.03-2.51c0-.52-.12-.9-.4-1.17-.21-.21-.49-.32-.8-.32-.18,0-.34,0-.5,0-.75,0-1.51-.04-2.26-.11v-.42c.54.04,1.08.07,1.62.08h0c.33,0,.6-.11.81-.31.28-.26.42-.65.42-1.16l.02-2.51c.01-1.09-.64-1.49-1.19-1.5-.54,0-1.08-.02-1.62-.05v-.42c.75.02,1.44.04,2.15.04.17,0,.34,0,.51,0,.3,0,.62-.12.86-.39.02.02.03.04.05.06.21.2.49.31.79.31h.02c.45-.01.77-.03,1.15-.05-.03,3.34-.07,6.71-.11,10.01,0,.53.15.93.46,1.18.19.15.41.23.65.23.09,0,.18-.01.26-.03.5-.12,1.01-.26,1.51-.41.59-.19.95-.75.97-1.52.06-3.22.11-6.5.14-9.74.4-.04.68-.07,1.17-.12.11-.01.22-.04.32-.09-.05,2.9-.11,5.81-.19,8.68-.02.66.27.98.51,1.12.15.09.33.14.51.14s.36-.05.53-.14c1.78-.94,3.5-2.12,5.13-3.52.38-.33.61-.76.66-1.25l.15-1.56c.06-.63-.26-.91-.45-1.03-.14-.09-.31-.13-.47-.13,0,0-.01,0-.02,0,.05-.15.09-.31.1-.47.04-.56.08-1.12.11-1.67.04-.55-.19-.85-.39-1.01-.03-.02-.06-.05-.1-.07.22-.04.45-.09.67-.13.6-.12,1.01-.59,1.06-1.21l.13-1.52c.04-.47-.14-.77-.3-.93Z"/>
      <g>
        <path class="cls-3" d="M26.27,44.64c-.61-.45-1.01-.83-1.15-1.19-.1-.26.06-.52.16-.62.12-.11.36-.17.57-.14.56.08.9.7,1.21,1.44.16.37.37.6.67.58,0,0,.55-.08,1.05-.15.2-.03.43-.17.41-.64-.03-.54-.16-1.58-.71-2.45-.61-.95-1.54-1.42-2.75-1.4-1.06.03-1.87.34-2.41.9-.62.65-.71,1.51-.67,1.87.12,1.79,1.5,2.9,2.62,3.86.73.64,1.48,1.52,1.59,2.08.03.19-.03.35-.16.44-.16.1-.41.12-.65-.04-.45-.3-.83-.81-1.08-1.46-.16-.43-.36-.77-.69-.84-.44-.1-.95-.19-1.37-.31-.13-.03-.23-.02-.3.03-.08.06-.11.17-.09.33.24,1.44.82,3.26,3.05,4.86.57.38,1.25.67,1.9.62.24-.02.46-.05.66-.16.98-.5,1.21-2.07,1.19-2.47-.01-2.89-1.85-4.25-3.06-5.15Z"/>
        <path class="cls-3" d="M32.2,40.18c-.48,0-.96,0-1.44-.01-.15,0-.48.06-.49.68-.04,4.24-.05,8.51-.04,12.7,0,.42.16.73.43.85.46.2.93.38,1.4.55.05.02.1.03.15.03.08,0,.13-.03.17-.05.12-.09.19-.28.19-.56.01-4.42.05-8.95.11-13.46,0-.29-.05-.49-.17-.6-.08-.08-.18-.12-.31-.12Z"/>
        <path class="cls-3" d="M39.57,40.2c-1.81,0-3.53,0-5.37-.01-.18,0-.48.09-.49.73-.06,4.59-.1,9.2-.12,13.68,0,.45.16.76.45.84,1.66.44,3.34.66,5.02.66.16,0,.33,0,.49,0,.22,0,.48-.15.49-.78l.03-2.51c0-.31-.05-.52-.18-.64-.08-.08-.18-.11-.3-.11-1.06.02-2.13-.03-3.18-.14-.2-.02-.31-.25-.31-.62v-.71c0-.31.08-.43.14-.49.04-.04.1-.05.17-.05.68.06,1.37.1,2.05.11.12,0,.22-.04.3-.11.13-.12.2-.34.2-.65l.02-2.51c0-.63-.26-.76-.48-.77-.67,0-1.36-.03-2.04-.07-.28-.02-.3-.42-.3-.6v-.71c.01-.24.06-.42.15-.5.04-.04.1-.06.17-.06,1.06.04,2,.06,3.06.05.18,0,.49-.1.49-.77l.02-2.51c0-.31-.06-.52-.18-.65-.08-.08-.18-.12-.3-.12Z"/>
        <path class="cls-3" d="M47.4,40.2c-2.25.02-3.94,0-6.14,0-.18,0-.48.1-.49.76l-.02,2.51c0,.3.06.52.19.64.08.08.18.11.29.11.61-.02.99-.04,1.6-.07.07,0,.13.01.17.05.08.08.12.25.12.49-.03,3.4-.07,6.84-.12,10.23,0,.29.06.5.19.6.06.05.13.07.21.07.03,0,.06,0,.1-.01.49-.11.98-.25,1.46-.4.29-.09.45-.39.46-.84.06-3.25.11-6.56.14-9.84,0-.25.06-.55.31-.58.6-.06.89-.08,1.5-.15.18-.02.47-.14.48-.72,0-.73.01-1.46.02-2.18,0-.26-.05-.44-.16-.55-.08-.08-.18-.12-.32-.12Z"/>
        <path class="cls-3" d="M54.9,40.19c-.08-.08-.19-.12-.35-.12h0c-1.86.03-3.71.06-5.49.08-.14,0-.48.07-.49.67-.05,4.09-.14,8.22-.25,12.29,0,.25.05.42.16.49.03.02.08.04.13.04.05,0,.12-.01.19-.05,1.73-.91,3.41-2.07,5-3.43.24-.21.38-.47.41-.77.05-.52.1-1.04.15-1.56.01-.11.01-.27-.1-.34-.13-.08-.29.03-.35.06-.94.59-1.91,1.14-2.88,1.62-.04.02-.11.05-.15.02-.02-.01-.08-.07-.07-.28l.02-.56c0-.21.07-.49.34-.59.63-.26,1.27-.54,1.9-.84.26-.13.42-.37.44-.7.04-.56.08-1.11.11-1.67.01-.19-.03-.32-.12-.39-.08-.06-.2-.08-.34-.04-.65.19-1.3.36-1.94.52-.07.02-.12.01-.16-.02-.06-.05-.09-.16-.09-.34l.02-.54c0-.3.12-.46.32-.5,1-.17,2.04-.36,3.07-.57.29-.06.46-.26.48-.57l.13-1.52c.01-.16-.02-.29-.1-.38Z"/>
      </g>
    </g>
  </g>
  <g>
    <path class="cls-3" d="M53.3,5.84c-.05.12-.12.16-.23.12l-.6-.23c-.1-.04-.14-.11-.1-.22l.18-.46c.04-.11,0-.18-.1-.22l-.46-.18c-.1-.04-.18,0-.22.1l-.18.46c-.04.11-.11.14-.22.1l-.6-.23c-.1-.04-.14-.13-.09-.24l.87-2.25c.26-.67.64-1.34,1.84-.87,1.2.46,1.03,1.22.77,1.88l-.87,2.25ZM53.25,3.24c.1-.25.11-.4-.24-.53s-.44-.02-.54.23l-.22.58c-.04.1,0,.18.1.22l.46.18c.11.04.18,0,.22-.1l.22-.57Z"/>
    <path class="cls-3" d="M56.12,3c.1.05.13.13.08.23l-1.17,2.39c-.05.1-.02.18.08.23l1.14.56c.1.05.13.13.08.23l-.28.57c-.05.1-.13.13-.23.08l-2.03-.99c-.1-.05-.13-.13-.08-.23l1.6-3.26c.05-.1.13-.13.23-.08l.57.28Z"/>
    <path class="cls-3" d="M60.52,5.43c.1.06.12.14.06.23l-.33.55c-.06.09-.14.12-.23.06l-1.24-.74c-.09-.06-.18-.04-.23.06l-.09.16c-.06.09-.03.18.06.23l.81.48c.1.06.12.14.06.23l-.33.55c-.06.09-.14.12-.23.06l-.81-.48c-.09-.06-.18-.04-.23.06l-.59.99c-.06.09-.14.12-.23.06l-.58-.35c-.09-.06-.12-.14-.06-.23l1.86-3.12c.06-.1.14-.11.23-.06l2.11,1.26Z"/>
    <path class="cls-3" d="M61.13,10.5c-.07.1-.16.12-.25.06l-.52-.37c-.09-.06-.11-.15-.04-.24l.29-.4c.07-.09.05-.17-.04-.24l-.4-.29c-.09-.06-.17-.05-.24.04l-.29.4c-.07.09-.15.1-.24.04l-.52-.37c-.09-.06-.1-.16-.03-.26l1.41-1.95c.42-.58.96-1.13,2-.38,1.04.75.69,1.44.27,2.02l-1.41,1.95ZM61.74,7.97c.16-.22.21-.36-.1-.58-.31-.22-.42-.13-.58.09l-.36.5c-.06.09-.05.17.04.24l.4.29c.1.06.18.05.24-.04l.36-.5Z"/>
    <path class="cls-3" d="M65.83,9.54c.08.07.09.17.02.25l-1.65,1.91c-.25.28-.96.99-1.99.11-.92-.8-.53-1.53-.26-1.88.05-.06.13-.08.2-.04l.57.31c.11.06.12.18.06.28-.14.21-.16.39.07.59.32.28.52.09.8-.24l1.45-1.68c.07-.08.17-.08.25-.02l.48.41Z"/>
    <path class="cls-3" d="M66.58,14.11c-.27.26-1.05.9-1.99-.07-.94-.97-.28-1.73,0-1.99l1.02-.99c.27-.26,1.05-.9,1.99.07.94.97.28,1.73,0,1.99l-1.02.99ZM66.7,12.63c.31-.3.49-.51.19-.81-.29-.3-.51-.14-.82.17l-.59.57c-.31.3-.49.51-.19.81.29.3.51.14.82-.17l.59-.57Z"/>
    <path class="cls-3" d="M68.07,17.47c-.06.15-.25.18-.36.05l-.41-.51s-.05-.1-.02-.15l.52-1.18s0-.04,0-.05l-.14-.18c-.06-.08-.17-.09-.25-.03l-.7.56c-.08.06-.18.05-.25-.03l-.4-.5c-.06-.08-.05-.18.03-.25l2.82-2.27c.08-.06.18-.05.25.03l.79.97c.64.79.56,1.38-.16,1.97-.41.33-.78.46-1.14.36-.03,0-.05,0-.07.03l-.49,1.17ZM69.01,14.35c-.06-.08-.17-.09-.25-.03l-.33.26c-.08.06-.09.17-.03.25l.18.23c.17.21.28.3.56.08.27-.22.21-.35.04-.56l-.18-.23Z"/>
  </g>
</svg>
